<svg width="142" height="37" viewBox="0 0 142 37" fill="none" xmlns="http://www.w3.org/2000/svg">
<path d="M77.7378 9.0509V0.942383L85.8463 4.98221L77.7378 9.0509Z" fill="#80C342"/>
<path d="M115.106 10.1475C113.057 10.1475 111.211 10.3495 109.797 10.8689V15.2838C110.98 14.851 113.115 14.5336 115.424 14.5336C117.876 14.5336 119.521 14.8798 119.521 16.9286V24.1714C119.521 26.3356 117.79 26.5088 116.001 26.5088C114.241 26.5088 112.653 26.3645 112.653 24.46C112.653 22.9883 113.548 22.2958 115.452 22.2958H118.021L116.087 18.4291C110.778 18.3425 107.517 19.9585 107.517 24.5754C107.517 28.6441 110.028 30.8083 116.058 30.8083C122.118 30.8083 124.6 28.6441 124.6 24.46V16.9286C124.658 11.7634 120.906 10.1475 115.106 10.1475Z" fill="#414042"/>
<path d="M139.432 25.1816C140.875 25.1816 142 26.3359 142 27.7498C142 29.1638 140.846 30.318 139.432 30.318C138.018 30.318 136.864 29.1638 136.864 27.7498C136.864 26.3359 138.018 25.1816 139.432 25.1816ZM139.432 30.0006C140.673 30.0006 141.654 28.9906 141.654 27.7787C141.654 26.5379 140.644 25.5568 139.432 25.5568C138.22 25.5568 137.21 26.5667 137.21 27.7787C137.239 28.9906 138.22 30.0006 139.432 30.0006ZM139.461 28.0384H138.97V29.1926H138.508V27.0861C138.508 26.5667 138.739 26.3647 139.23 26.3647H139.576C140.24 26.3647 140.528 26.6533 140.528 27.2016C140.528 27.6632 140.297 27.923 139.922 28.0095L140.586 29.1926H140.067L139.461 28.0384ZM139.259 26.7687C139.057 26.7687 138.941 26.8553 138.941 27.0861V27.6344H139.518C139.922 27.6344 140.067 27.519 140.067 27.2016C140.067 26.913 139.922 26.7687 139.576 26.7687H139.259Z" fill="#414042"/>
<path d="M25.7394 30.3466H20.5742V17.3326C20.5742 12.6868 23.3732 10.1475 28.7693 10.1475C29.837 10.1475 30.4718 10.2629 31.2221 10.4649V15.3127C30.6738 15.1684 29.837 14.9953 28.7693 14.9953C26.2011 14.9953 25.7394 15.9475 25.7394 17.7077V30.3466V30.3466Z" fill="#414042"/>
<path d="M60.4821 22.8442C60.4821 24.8642 61.0881 25.9607 64.3199 25.9607C67.5518 25.9607 68.0712 24.8642 68.0712 22.8442V10.6382H73.2364V22.8731C73.2364 28.1537 70.5528 30.8373 64.3199 30.8373C58.3756 30.8373 55.3169 28.0383 55.3169 22.8731V10.6382H60.4821V22.8442V22.8442Z" fill="#414042"/>
<path d="M77.7378 13.1776L82.8742 10.6094V30.318H77.7378V13.1776Z" fill="#414042"/>
<path d="M94.0992 24.6911C94.4166 26.1627 94.8494 26.3359 95.744 26.3359C96.6385 26.3359 97.0713 26.1916 97.3887 24.6911L100.476 10.6094H105.757L102.41 25.2682C101.631 28.7309 100.794 30.7797 95.744 30.7797C90.6942 30.7797 89.8574 28.7598 89.0782 25.2682L85.731 10.6094H91.0116L94.0992 24.6911Z" fill="#414042"/>
<path d="M133.286 30.3466H128.12V17.3326C128.12 12.6868 130.919 10.1475 136.315 10.1475C137.383 10.1475 138.018 10.2629 138.768 10.4649V15.3127C138.22 15.1684 137.383 14.9953 136.315 14.9953C133.747 14.9953 133.286 15.9475 133.286 17.7077V30.3466Z" fill="#414042"/>
<path d="M44.0918 25.7874C42.7933 25.9316 42.4181 25.9605 42.0142 25.9605C38.4649 25.9605 37.8012 24.5754 37.8012 22.065V18.8908C37.8012 16.3803 38.3783 14.9953 42.0142 14.9953C45.5634 14.9953 46.3137 16.3803 46.3137 18.8908V36.9546L51.45 34.3864V18.7754C51.45 12.5714 47.2659 10.1475 42.0719 10.1475C36.1564 10.1475 32.636 12.6002 32.636 18.7754V21.9207C32.636 27.461 35.4639 31.1257 41.5813 30.7794L44.0918 25.7874Z" fill="#414042"/>
<path d="M7.56025 10.1475C5.51148 10.1475 3.6647 10.3495 2.25076 10.8689V15.2838C3.43385 14.851 5.56919 14.5336 7.87767 14.5336C10.3304 14.5336 11.9752 14.8798 11.9752 16.9286V24.1714C11.9752 26.3356 10.2439 26.5088 8.45478 26.5088C6.69457 26.5088 5.1075 26.3645 5.1075 24.46C5.1075 22.9883 6.00203 22.2958 7.90652 22.2958H10.4747L8.54135 18.4291C3.26072 18.3425 0 19.9585 0 24.5754C0 28.6441 2.51047 30.8083 8.54135 30.8083C14.6011 30.8083 17.0827 28.6441 17.0827 24.46V16.9286C17.1116 11.7634 13.3603 10.1475 7.56025 10.1475Z" fill="#414042"/>
</svg>
